<svg xmlns="http://www.w3.org/2000/svg" viewBox="0 0 1024 1024">
  <title>Rheo symbol</title>
  <desc>Transparent vector source for the Rheo flow-card symbol.</desc>
  <path d="M 758.00 470.00 L 748.00 462.00 L 734.00 461.00 L 727.00 464.00 L 721.00 470.00 L 717.00 480.00 L 717.00 731.00 L 710.00 750.00 L 694.00 766.00 L 675.00 773.00 L 291.00 773.00 L 279.00 770.00 L 265.00 761.00 L 256.00 750.00 L 251.00 733.00 L 242.00 719.00 L 279.00 693.00 L 311.00 678.00 L 348.00 667.00 L 393.00 661.00 L 453.00 659.00 L 452.00 656.00 L 426.00 655.00 L 399.00 652.00 L 361.00 652.00 L 333.00 656.00 L 300.00 667.00 L 286.00 674.00 L 282.00 679.00 L 269.00 687.00 L 236.00 718.00 L 224.00 718.00 L 217.00 721.00 L 209.00 731.00 L 208.00 747.00 L 211.00 759.00 L 219.00 776.00 L 228.00 788.00 L 248.00 805.00 L 266.00 814.00 L 287.00 819.00 L 678.00 819.00 L 702.00 813.00 L 716.00 806.00 L 732.00 794.00 L 745.00 779.00 L 755.00 761.00 L 761.00 740.00 L 762.00 480.00 Z" fill="#F4ECDD"/>
  <path d="M 864.00 361.00 L 836.00 356.00 L 807.00 356.00 L 786.00 359.00 L 745.00 370.00 L 703.00 389.00 L 678.00 405.00 L 653.00 425.00 L 623.00 455.00 L 577.00 510.00 L 549.00 539.00 L 520.00 562.00 L 492.00 577.00 L 470.00 584.00 L 451.00 587.00 L 410.00 587.00 L 383.00 584.00 L 331.00 585.00 L 298.00 592.00 L 274.00 601.00 L 259.00 609.00 L 226.00 633.00 L 198.00 664.00 L 175.00 703.00 L 165.00 727.00 L 157.00 755.00 L 184.00 718.00 L 218.00 683.00 L 251.00 658.00 L 286.00 641.00 L 311.00 634.00 L 343.00 630.00 L 382.00 631.00 L 420.00 635.00 L 455.00 634.00 L 494.00 625.00 L 528.00 609.00 L 545.00 598.00 L 572.00 576.00 L 604.00 542.00 L 661.00 471.00 L 692.00 440.00 L 718.00 419.00 L 756.00 395.00 L 794.00 378.00 L 834.00 366.00 Z" fill="#F4ECDD"/>
  <path d="M 209.00 542.00 L 211.00 546.00 L 220.00 554.00 L 232.00 556.00 L 244.00 551.00 L 249.00 545.00 L 252.00 537.00 L 252.00 296.00 L 255.00 284.00 L 260.00 274.00 L 276.00 258.00 L 286.00 253.00 L 300.00 250.00 L 674.00 250.00 L 684.00 252.00 L 695.00 257.00 L 707.00 268.00 L 715.00 283.00 L 717.00 292.00 L 717.00 309.00 L 719.00 315.00 L 726.00 323.00 L 732.00 326.00 L 742.00 327.00 L 752.00 323.00 L 758.00 317.00 L 762.00 307.00 L 760.00 275.00 L 750.00 249.00 L 741.00 236.00 L 730.00 225.00 L 714.00 214.00 L 697.00 207.00 L 671.00 203.00 L 302.00 203.00 L 277.00 207.00 L 258.00 215.00 L 243.00 225.00 L 226.00 243.00 L 215.00 262.00 L 209.00 281.00 Z" fill="#F4ECDD"/>
  <path d="M 423.00 657.00 L 367.00 655.00 L 343.00 658.00 L 311.00 667.00 L 291.00 676.00 L 270.00 689.00 L 248.00 708.00 L 233.00 725.00 L 251.00 709.00 L 270.00 696.00 L 312.00 675.00 L 330.00 669.00 L 367.00 661.00 L 396.00 658.00 L 423.00 658.00 Z" fill="#D6A03A"/>
</svg>